<svg width="45" height="55" viewBox="0 0 45 55" fill="none" xmlns="http://www.w3.org/2000/svg">
<path d="M28.1922 24.753L31.9025 18.0209L41.9032 34.6768L41.908 37.8733L41.8754 15.8777C41.8517 15.34 41.5847 14.8482 41.1587 14.5581L23.1536 3.48359C22.7327 3.26216 22.1983 3.26472 21.7779 3.4906C21.7211 3.52087 21.6676 3.55403 21.6168 3.59019L21.554 3.63237L4.07732 14.4617L4.00958 14.4947C3.92237 14.5375 3.83413 14.592 3.7515 14.6553C3.42006 14.9094 3.20008 15.2851 3.1289 15.7066C3.11818 15.7705 3.11027 15.8355 3.10663 15.9013L3.1341 33.8255L12.4493 18.3869C13.6221 16.3398 16.1773 15.6804 18.5494 15.7162L21.3334 15.7948L4.92949 43.9249L6.86318 45.1152L23.4634 15.8234L30.8009 15.7949L14.2434 45.8259L21.1434 50.0697L21.9677 50.5766C22.3165 50.7282 22.7276 50.7359 23.0792 50.6L41.3373 39.2859L37.8466 41.4489L28.1922 24.753ZM29.6077 46.5543L22.6387 34.8586L26.8929 27.1394L36.0454 42.5651L29.6077 46.5543Z" fill="#2D374B"/>
<path d="M22.6389 34.8588L29.6077 46.5546L36.0455 42.5652L26.8929 27.1396L22.6389 34.8588Z" fill="#28A0F0"/>
<path d="M41.908 37.8729L41.9032 34.6764L31.9025 18.0205L28.1923 24.7526L37.8466 41.4484L41.3372 39.2854C41.6796 38.988 41.8868 38.5517 41.9085 38.0809L41.908 37.8729Z" fill="#28A0F0"/>
<path d="M0.00012207 40.8874L4.92947 43.9247L21.3333 15.7948L18.5493 15.7162C16.1772 15.6804 13.6219 16.3398 12.4492 18.3869L3.13397 33.8254L0.00012207 38.9741V40.8874Z" fill="white"/>
<path d="M30.8008 15.7949L23.4633 15.8234L6.8631 45.1152L12.6654 48.6874L14.2433 45.8259L30.8008 15.7949Z" fill="white"/>
<path d="M45 15.7546C44.9386 14.1137 44.1078 12.6117 42.8064 11.7372L24.5652 0.520231C23.2779 -0.172891 21.6697 -0.173781 20.38 0.519786C20.2276 0.602017 2.641 11.5083 2.641 11.5083C2.3976 11.6331 2.16315 11.7818 1.94264 11.9506C0.780886 12.8409 0.0727398 14.2244 0 15.7444V38.9744L3.13385 33.8257L3.10648 15.9015C3.11012 15.8359 3.11782 15.7714 3.12875 15.7077C3.19961 15.286 3.41981 14.9098 3.75135 14.6555C3.83408 14.5922 21.7211 3.52105 21.7779 3.49068C22.1983 3.2649 22.7327 3.26223 23.1536 3.48367L41.1587 14.5579C41.5847 14.848 41.8517 15.3399 41.8754 15.8775V38.0813C41.8537 38.5521 41.6796 38.9884 41.3372 39.2858L37.8465 41.4487L36.0454 42.5649L29.6077 46.5543L23.0791 50.5999C22.7275 50.7357 22.3163 50.728 21.9676 50.5765L14.2433 45.8259L12.6654 48.6875L19.607 52.9611C19.8365 53.1007 20.041 53.2245 20.2089 53.3252C20.4687 53.4809 20.6458 53.5852 20.7084 53.6177C21.2017 53.874 21.9116 54.0231 22.5513 54.0231C23.1378 54.0231 23.7097 53.9079 24.2509 53.6812L43.2137 41.9384C44.3021 41.0367 44.9423 39.6768 45 38.2037V15.7546Z" fill="#96BEDC"/>
</svg>
