<svg width="42" height="41" viewBox="0 0 42 41" fill="none" xmlns="http://www.w3.org/2000/svg">
<g clip-path="url(#clip0_75_621)">
<path d="M20.9521 0C32.275 0 41.4521 9.17897 41.4521 20.5C41.4521 31.8229 32.275 41 20.9521 41C9.63111 41 0.452148 31.822 0.452148 20.5C0.452148 9.17897 9.63111 0 20.9521 0Z" fill="#F5AC37"/>
<path d="M21.7077 21.9473H29.4973C29.6634 21.9473 29.7418 21.9473 29.7538 21.7296C29.8174 20.9372 29.8174 20.1401 29.7538 19.3468C29.7538 19.1927 29.6772 19.1291 29.5103 19.1291H14.0075C13.8156 19.1291 13.7639 19.1927 13.7639 19.3726V21.6531C13.7639 21.9473 13.7639 21.9473 14.0711 21.9473H21.7077ZM28.8839 16.4639V16.285C28.7538 16.0018 28.5997 15.7315 28.4208 15.4778C28.1514 15.0442 27.8341 14.6448 27.4724 14.2859C27.3018 14.0691 27.1044 13.8745 26.8829 13.7093C25.7741 12.7656 24.4558 12.0977 23.0389 11.7619C22.3239 11.6014 21.5933 11.5248 20.8608 11.5313H13.9807C13.7889 11.5313 13.763 11.6079 13.763 11.7748V16.3228C13.763 16.5147 13.763 16.5663 14.0066 16.5663H28.7916L28.9457 16.4639H28.8839ZM28.8839 24.6125C28.6662 24.5885 28.4466 24.5885 28.2289 24.6125H14.0204C13.8285 24.6125 13.7639 24.6125 13.7639 24.8689V29.3154C13.7639 29.5202 13.7639 29.5719 14.0204 29.5719H20.5804C20.894 29.5959 21.2077 29.5737 21.5149 29.5082C22.4669 29.44 23.4032 29.2333 24.2962 28.8929C24.621 28.7804 24.9346 28.6337 25.2307 28.4575H25.3202C26.858 27.6577 28.1071 26.4012 28.8949 24.8588C28.8949 24.8588 28.9844 24.6632 28.8839 24.6125ZM11.1892 31.8772V31.8007V28.8154V27.8034V24.7924C11.1892 24.6254 11.1892 24.6005 10.9844 24.6005H8.20398C8.04992 24.6005 7.98627 24.6005 7.98627 24.3957V21.9612H10.9586C11.1246 21.9612 11.1892 21.9612 11.1892 21.7435V19.3348C11.1892 19.1807 11.1892 19.1429 10.9844 19.1429H8.20398C8.04992 19.1429 7.98627 19.1429 7.98627 18.9381V16.6835C7.98627 16.5424 7.98627 16.5045 8.19106 16.5045H10.9457C11.1376 16.5045 11.1892 16.5045 11.1892 16.261V9.35509C11.1892 9.15029 11.1892 9.09863 11.4457 9.09863H21.0545C21.752 9.12631 22.4448 9.20288 23.1302 9.32926C24.5425 9.59033 25.8996 10.0949 27.1403 10.8154C27.9632 11.2997 28.7206 11.8846 29.3949 12.558C29.9023 13.0848 30.3599 13.6549 30.7658 14.2619C31.1689 14.8772 31.5038 15.535 31.7667 16.2222C31.799 16.4012 31.9706 16.5221 32.1496 16.4916H34.4429C34.7372 16.4916 34.7372 16.4916 34.7501 16.7739V18.8754C34.7501 19.0802 34.6735 19.1318 34.4678 19.1318H32.6994C32.5204 19.1318 32.4687 19.1318 32.4817 19.3625C32.5518 20.1429 32.5518 20.9261 32.4817 21.7066C32.4817 21.9243 32.4817 21.9501 32.7261 21.9501H34.7492C34.8387 22.0654 34.7492 22.1807 34.7492 22.297C34.7621 22.4455 34.7621 22.5959 34.7492 22.7444V24.2951C34.7492 24.5128 34.6855 24.5774 34.4927 24.5774H32.0711C31.9023 24.5451 31.7381 24.6531 31.6994 24.821C31.1228 26.32 30.2003 27.6641 29.0084 28.7416C28.573 29.1337 28.1154 29.5027 27.6376 29.8431C27.1246 30.1383 26.6256 30.4455 26.0997 30.689C25.132 31.1245 24.1173 31.4455 23.0758 31.6494C22.0868 31.8265 21.0841 31.9067 20.0776 31.8929L11.1892 31.8772Z" fill="#FEFEFD"/>
</g>
<defs>
<clipPath id="clip0_75_621">
<rect width="41" height="41" fill="white" transform="translate(0.452148)"/>
</clipPath>
</defs>
</svg>
