<svg width="25" height="25" viewBox="0 0 25 25" fill="none" xmlns="http://www.w3.org/2000/svg">
<circle cx="12.5657" cy="12.1135" r="11.6135" stroke="#FFFEFE"/>
<path d="M11.6911 14.0735V11.8415H12.5191C13.0871 11.8415 13.5071 11.6895 13.7791 11.3855C14.0591 11.0815 14.1991 10.7095 14.1991 10.2695C14.1991 9.94145 14.1311 9.66145 13.9951 9.42945C13.8591 9.18945 13.6671 9.00945 13.4191 8.88945C13.1791 8.76145 12.9031 8.69745 12.5911 8.69745C12.2311 8.69745 11.9191 8.77345 11.6551 8.92545C11.3991 9.06945 11.1991 9.26945 11.0551 9.52545C10.9111 9.77345 10.8391 10.0615 10.8391 10.3895H9.73511C9.73511 9.91745 9.83911 9.47745 10.0471 9.06945C10.2631 8.66145 10.5831 8.32945 11.0071 8.07345C11.4311 7.81745 11.9591 7.68945 12.5911 7.68945C13.1511 7.68945 13.6311 7.80545 14.0311 8.03745C14.4391 8.26145 14.7511 8.56545 14.9671 8.94945C15.1911 9.32545 15.3031 9.74145 15.3031 10.1975V10.3415C15.3031 10.7895 15.1951 11.2015 14.9791 11.5775C14.7631 11.9535 14.4391 12.2535 14.0071 12.4775C13.5831 12.6935 13.0591 12.8015 12.4351 12.8015L12.8671 12.2495L12.8431 14.0735H11.6911ZM11.5711 16.6895V15.2255H12.9631V16.6895H11.5711Z" fill="#FFFEFE"/>
</svg>
