<svg width="856" height="182" viewBox="0 0 856 182" fill="none" xmlns="http://www.w3.org/2000/svg">
<g clip-path="url(#clip0_30_1712)">
<path d="M349.1 142.84C342.701 142.982 336.352 141.687 330.52 139.05C325.444 136.713 321.154 132.955 318.17 128.23C315.223 123.563 313.75 117.897 313.75 111.23C313.75 104.01 315.493 98.1168 318.98 93.5501C322.467 88.9835 327.467 85.5568 333.98 83.2701C341.309 80.8518 348.994 79.692 356.71 79.8401H379.26V94.9901H356.35C350.58 94.9901 342.67 96.3801 339.61 99.1401C338.151 100.54 336.989 102.221 336.196 104.081C335.403 105.941 334.994 107.943 334.994 109.965C334.994 111.987 335.403 113.989 336.196 115.849C336.989 117.71 338.151 119.39 339.61 120.79C342.67 123.56 346.83 124.79 352.61 124.79C356.309 124.788 359.996 124.389 363.61 123.6C367.614 122.547 371.088 120.054 373.37 116.6C375.29 113.53 376.37 111.23 376.61 105.93L389.72 111.1C389.113 117.953 387.447 123.727 384.72 128.42C382.01 133.11 375.66 137.42 370.26 139.48C365.22 141.36 355.96 142.84 349.1 142.84ZM380.67 126.6V111.23H376.52V78.9401C376.52 73.4135 375.14 69.2334 372.38 66.4001C369.62 63.5668 365.41 62.1535 359.75 62.1601C356.737 62.1601 353.127 62.2201 348.92 62.3401C344.713 62.4601 340.477 62.6101 336.21 62.7901C331.943 62.9701 328.123 63.1801 324.75 63.4201V42.1401C327.52 41.9001 330.61 41.6601 334.04 41.4201C337.47 41.1801 341.04 41.0301 344.77 40.9601C348.5 40.8901 351.99 40.8701 355.24 40.8701C365.34 40.8701 373.727 42.2035 380.4 44.8701C386.719 47.2272 392.06 51.6448 395.56 57.4101C398.98 63.1235 400.693 70.5501 400.7 79.6901V140.3L380.67 126.6Z" fill="#05B0AB"/>
<path d="M193.35 141.12V0.299805H216.48V141.12H193.35ZM209.24 81.3798V62.2598H244.87C251.97 62.2598 257.5 60.4165 261.46 56.7298C265.42 53.0431 267.4 47.9131 267.4 41.3398C267.468 38.5963 266.987 35.8669 265.986 33.3117C264.985 30.7565 263.483 28.427 261.57 26.4598C257.67 22.4598 252.17 20.4598 245.07 20.4598H209.26V0.299805H246.07C254.93 0.299805 262.71 2.07647 269.41 5.62981C275.903 8.92378 281.331 13.9872 285.068 20.2353C288.806 26.4834 290.699 33.6613 290.53 40.9398C290.53 49.1198 288.687 56.2265 285 62.2598C281.256 68.3491 275.846 73.2386 269.41 76.3498C262.697 79.6831 254.917 81.3498 246.07 81.3498L209.24 81.3798ZM270.6 141.12L221.31 79.9698L242.84 72.1198L299.77 141.12H270.6Z" fill="#05B0AB"/>
<path d="M427.87 141.12V44.5596H449.99V141.12H427.87Z" fill="#05B0AB"/>
<path d="M506.36 143.14C501.123 143.156 495.91 142.443 490.87 141.02C486.048 139.68 481.442 137.66 477.19 135.02C473.075 132.444 469.408 129.215 466.33 125.46L480.41 111.38C483.565 115.124 487.519 118.114 491.98 120.13C496.646 122.135 501.683 123.13 506.76 123.05C511.727 123.05 515.483 122.31 518.03 120.83C519.21 120.23 520.195 119.306 520.871 118.168C521.547 117.03 521.886 115.724 521.85 114.4C521.9 113.043 521.592 111.696 520.956 110.495C520.321 109.295 519.381 108.283 518.23 107.56C515.331 105.735 512.181 104.344 508.88 103.43C505.053 102.304 501.03 101.13 496.81 99.9104C492.616 98.721 488.567 97.0674 484.74 94.9804C480.965 92.9512 477.752 90.0169 475.39 86.4404C472.97 82.8137 471.76 78.1171 471.76 72.3504C471.605 66.7426 473.111 61.2141 476.09 56.4604C479.098 51.9221 483.361 48.3571 488.36 46.2004C493.647 43.7871 499.98 42.5804 507.36 42.5804C514.451 42.4435 521.486 43.8493 527.98 46.7004C533.963 49.4653 539.131 53.73 542.98 59.0804L528.87 73.1304C526.283 69.8233 522.985 67.1404 519.22 65.2804C515.311 63.4781 511.044 62.5857 506.74 62.6704C502.32 62.6704 498.903 63.3371 496.49 64.6704C495.391 65.1923 494.465 66.0195 493.823 67.0533C493.181 68.0871 492.85 69.2837 492.87 70.5004C492.842 71.7726 493.166 73.0279 493.804 74.1286C494.443 75.2293 495.372 76.1329 496.49 76.7404C499.418 78.4334 502.564 79.7187 505.84 80.5604C509.66 81.6337 513.683 82.8071 517.91 84.0804C522.121 85.3534 526.171 87.1084 529.98 89.3104C533.756 91.479 536.963 94.512 539.34 98.1604C541.753 101.847 542.96 106.64 542.96 112.54C542.96 121.94 539.673 129.387 533.1 134.88C526.527 140.374 517.613 143.127 506.36 143.14Z" fill="#05B0AB"/>
<path d="M592.46 142.13L551.22 44.5596H575.57L603.73 116.18H596.73L626.5 44.5596H651.04L606.18 142.13H592.46ZM563.69 181.36L593.69 119.6L606.16 142.13L588.26 181.36H563.69Z" fill="#05B0AB"/>
<path d="M663.07 141.12V44.5599L685.2 58.2799V141.12H663.07ZM729.25 141.12V85.3999C729.25 78.9599 727.207 73.6632 723.12 69.5099C719.033 65.3566 713.77 63.2766 707.33 63.2699C703.326 63.1954 699.373 64.1674 695.86 66.0899C692.56 67.9121 689.842 70.6299 688.02 73.9299C686.101 77.4439 685.129 81.3967 685.2 85.3999L676.55 80.5699C676.419 73.7235 678.084 66.9622 681.38 60.9599C684.527 55.3301 689.154 50.6685 694.76 47.4799C700.609 44.152 707.241 42.4498 713.97 42.5499C720.813 42.4336 727.536 44.3588 733.28 48.0799C738.819 51.6695 743.381 56.5758 746.56 62.3599C749.702 67.916 751.362 74.187 751.38 80.5699V141.12H729.25Z" fill="#05B0AB"/>
<path d="M818.37 143.14C809.316 143.257 800.394 140.962 792.52 136.49C784.94 132.198 778.654 125.946 774.32 118.39C769.965 110.56 767.68 101.749 767.68 92.7897C767.68 83.8305 769.965 75.0194 774.32 67.1897C778.678 59.6777 784.96 53.4641 792.52 49.1897C799.644 45.2637 807.569 43.0149 815.693 42.6146C823.817 42.2143 831.925 43.673 839.4 46.8797C845.801 49.6839 851.476 53.9152 855.99 59.2497L841.5 73.9297C838.768 70.6413 835.287 68.0558 831.35 66.3897C827.232 64.6765 822.809 63.8191 818.35 63.8697C813.244 63.7727 808.206 65.0581 803.77 67.5897C799.614 70.0085 796.203 73.5232 793.91 77.7497C791.595 82.4252 790.39 87.5722 790.39 92.7897C790.39 98.0071 791.595 103.154 793.91 107.83C796.179 112.1 799.593 115.653 803.77 118.09C808.207 120.639 813.253 121.936 818.37 121.84C822.83 121.895 827.254 121.037 831.37 119.32C835.311 117.66 838.793 115.074 841.52 111.78L856.01 126.47C851.487 131.804 845.806 136.034 839.4 138.84C832.771 141.737 825.604 143.202 818.37 143.14Z" fill="#05B0AB"/>
<path opacity="0.19" d="M61.67 34.0599C61.67 34.0599 74.5801 18.1499 74.5801 18.0599C74.5801 17.9699 61.6801 -0.0901243 61.7001 -0.0301243L48.7001 18.1099L61.67 34.0599Z" fill="#F2F2F2"/>
<path opacity="0.19" d="M13.05 68.3096L0.0500488 86.5596C5.50005 92.9296 9.31003 106.12 9.59003 116.16C9.59003 116.55 9.59003 141.16 9.59003 141.16H30.59C30.59 141.16 30.7101 117.28 30.7101 117.1C30.5003 99.3089 24.2759 82.1129 13.05 68.3096Z" fill="#F2F2F2"/>
<path opacity="0.19" d="M85.79 33.9697C75.28 44.4897 66.2101 57.8897 61.7001 68.6197C57.2001 57.8897 47.8901 44.4897 37.3901 33.9697L25.04 51.3397C30.0077 56.808 34.3667 62.7998 38.04 69.2097C45.8136 82.5597 50.3068 97.5644 51.1501 112.99C51.2201 114.38 51.04 141.18 51.04 141.18H72.3C72.3 141.18 72.3 114.31 72.36 112.92C73.0563 97.5541 77.3992 82.5748 85.03 69.2197C88.7424 62.7946 93.1343 56.7868 98.1301 51.2997L85.79 33.9697Z" fill="#F2F2F2"/>
<path d="M61.67 34.0599C61.67 34.0599 74.5801 18.1499 74.5801 18.0599C74.5801 17.9699 61.6801 -0.0901243 61.7001 -0.0301243L48.7001 18.1099L61.67 34.0599Z" fill="#05B0AB"/>
<path d="M13.05 68.3096L0.0500488 86.5596C5.50005 92.9296 9.31003 106.12 9.59003 116.16C9.59003 116.55 9.59003 141.16 9.59003 141.16H30.59C30.59 141.16 30.7101 117.28 30.7101 117.1C30.5003 99.3089 24.2759 82.1129 13.05 68.3096Z" fill="#05B0AB"/>
<path d="M85.79 33.9697C75.28 44.4897 66.2101 57.8897 61.7001 68.6197C57.2001 57.8897 47.8901 44.4897 37.3901 33.9697L25.04 51.3397C30.0077 56.808 34.3667 62.7998 38.04 69.2097C45.8136 82.5597 50.3068 97.5644 51.1501 112.99C51.2201 114.38 51.04 141.18 51.04 141.18H72.3C72.3 141.18 72.3 114.31 72.36 112.92C73.0563 97.5541 77.3992 82.5748 85.03 69.2197C88.7424 62.7946 93.1343 56.7868 98.1301 51.2997L85.79 33.9697Z" fill="#05B0AB"/>
<path d="M110.2 68.3799L123.2 86.6299C117.75 92.9999 113.94 106.2 113.66 116.23C113.66 116.62 113.66 141.23 113.66 141.23H92.55C92.55 141.23 92.55 117.37 92.55 117.23C92.7388 99.4189 98.9609 82.1982 110.2 68.3799Z" fill="#05B0AB"/>
<path d="M110.2 68.3799L123.2 86.6299C117.75 92.9999 113.94 106.2 113.66 116.23C113.66 116.62 113.66 141.23 113.66 141.23H92.55C92.55 141.23 92.55 117.37 92.55 117.23C92.7388 99.4189 98.9609 82.1982 110.2 68.3799Z" fill="#05B0AB"/>
<path d="M438.86 29.3297C444.769 29.3297 449.56 24.5391 449.56 18.6297C449.56 12.7202 444.769 7.92969 438.86 7.92969C432.951 7.92969 428.16 12.7202 428.16 18.6297C428.16 24.5391 432.951 29.3297 438.86 29.3297Z" fill="#05B0AB"/>
</g>
<defs>
<clipPath id="clip0_30_1712">
<rect width="856" height="181.36" fill="white"/>
</clipPath>
</defs>
</svg>
