<svg id="Layer_1" data-name="Layer 1" xmlns="http://www.w3.org/2000/svg" viewBox="0 0 2213.29 381.18"><defs><style>.cls-1{fill:#05B0AB;}</style></defs><path class="cls-1" d="M835.54,210.06q-12.79-16.56-35.11-23.79A64.23,64.23,0,0,0,823,167.66q12.72-16.74,12.72-45.16v-5.93q0-40.27-25-61.69t-75.9-21.41H633.93v312.9H747.56q33.91,0,56.39-10t33.5-28.83q11-18.87,11-46v-5.93Q848.47,226.81,835.54,210.06ZM742.05,69.93q26.28,0,38.8,14.2t12.5,36.68q0,22-12.5,36.25t-38.8,14.2H675.48V69.93ZM792.29,295.7q-13.78,14.22-38.79,14.21h-78V206h78q25.44,0,39,13.78t13.57,37.95Q806.07,281.51,792.29,295.7Z"/><path class="cls-1" d="M1010.86,352.31q-29.68,0-51.3-10.18t-35.19-26.92a113,113,0,0,1-20.14-37.53,139.45,139.45,0,0,1-6.58-42.4v-7.63a140.9,140.9,0,0,1,6.58-42.82,113,113,0,0,1,20.14-37.52,97.36,97.36,0,0,1,34.55-26.71q21-10,49.4-10,36.89,0,60.84,15.9a98.42,98.42,0,0,1,35.61,40.92,125,125,0,0,1,11.66,53.42V239.1h-201V208.57h171.29l-9.33,16.54q0-24.17-7.63-41.76A59.8,59.8,0,0,0,1046.9,156q-15.27-9.75-38.58-9.75-24.18,0-40.07,11T944.5,187.38q-7.85,19.06-7.84,44.09,0,24.17,7.84,43.46a66,66,0,0,0,24.38,30.52q16.54,11.25,42,11.24,26.72,0,43.46-11.87t20.14-27.56h38.16q-4.68,23.33-18.66,40.28a89.9,89.9,0,0,1-35.19,25.86Q1037.56,352.31,1010.86,352.31Z"/><path class="cls-1" d="M1236.85,352.61q-25.44,0-43.89-8.69a64.17,64.17,0,0,1-28.41-25.23q-10-16.53-10-39.86,0-24.16,10.81-40.27T1197,214.18q20.77-8.28,50-8.27h61.48v30.53h-63.18q-24.58,0-37.73,11.87t-13.14,30.52q0,18.68,13.14,30.11t37.73,11.45a73.15,73.15,0,0,0,27.57-5.3,48.41,48.41,0,0,0,21.83-17.81q8.68-12.5,9.54-34.56l11,16.11q-2.12,24.18-11.66,40.5a62.65,62.65,0,0,1-26.28,24.8Q1260.59,352.6,1236.85,352.61Zm74.19-5.93V278.83h-6.78V200.4q0-23.33-12.09-35.2t-35.4-11.86q-13.14,0-27.13.42t-26.71.84q-12.72.43-22,1.28V120.26q9.31-.84,19.71-1.48t21.41-.85q11-.21,21.21-.21,34.76,0,56.81,8.27t32.65,26.92q10.59,18.68,10.6,50.46V346.68Z"/><path class="cls-1" d="M1417.89,346.68V120.26h32.22v97.1H1445q0-33.08,8.69-56.18t26.08-35.4q17.39-12.3,44.09-12.3h1.7q26.72,0,44.31,12.3t26.07,35.4q8.47,23.12,8.48,56.18h-11.87q0-33.08,8.91-56.18t26.5-35.4q17.58-12.3,44.3-12.3h1.7q26.7,0,44.52,12.3t26.49,35.4q8.68,23.12,8.7,56.18V346.68H1713V208.45q0-27.55-13.57-42.61t-37.73-15.05q-25,0-40.28,15.9T1606.14,211V346.68h-40.7V208.45q0-27.55-13.57-42.61t-37.74-15.05q-25,0-40.28,15.9T1458.59,211V346.68Z"/><path class="cls-1" d="M1924.55,352.31q-29.68,0-51.3-10.18t-35.2-26.92a113.16,113.16,0,0,1-20.13-37.53,139.45,139.45,0,0,1-6.58-42.4v-7.63a140.9,140.9,0,0,1,6.58-42.82,113.21,113.21,0,0,1,20.13-37.52,97.48,97.48,0,0,1,34.56-26.71q21-10,49.39-10,36.88,0,60.85,15.9a98.42,98.42,0,0,1,35.61,40.92,125,125,0,0,1,11.66,53.42V239.1h-201V208.57h171.29l-9.33,16.54q0-24.17-7.63-41.76A59.86,59.86,0,0,0,1960.59,156q-15.27-9.75-38.59-9.75-24.16,0-40.06,11t-23.75,30.11q-7.85,19.06-7.84,44.09,0,24.17,7.84,43.46a66,66,0,0,0,24.38,30.52q16.54,11.25,42,11.24,26.7,0,43.46-11.87t20.14-27.56h38.15q-4.66,23.33-18.65,40.28a89.9,89.9,0,0,1-35.19,25.86Q1951.25,352.31,1924.55,352.31Z"/><path class="cls-1" d="M2087.78,346.68V120.26H2120v93.28h-1.7q0-49.6,21.84-72.71t65.5-23.11h7.64v36.47h-14.42q-33.93,0-52.15,18t-18.23,51.93V346.68Z"/><path class="cls-1" d="M231.87,181.36a18.4,18.4,0,0,0,9.14-5l72.18-71.6c7.27-7.27,7.45-19.82.18-27.09L241.16,5.45a18.62,18.62,0,0,0-26.33,0L129.31,91l0,0L2.85,217.72c-7.16,7.08.3,18.93,9.81,15.58l217.42-51.56Z"/><path class="cls-1" d="M448,142.4,226.51,198.69c-4.86,1.25-10.7,3.2-14.5,7L144.3,273.4a22.37,22.37,0,0,0,0,31.63l67.1,67.1a22.39,22.39,0,0,0,31.64,0l72.26-72.26,0,0L457.69,157.77C464.74,150.78,457.4,139.09,448,142.4Z"/></svg>