<svg width="88" height="84" viewBox="0 0 88 84" fill="none" xmlns="http://www.w3.org/2000/svg">
<ellipse cx="43.5556" cy="42" rx="43.5556" ry="42" fill="#FFFEFE"/>
<path d="M66.2005 17.0195L46.5254 31.6325L50.1638 23.0111L66.2005 17.0195Z" fill="#E2761B" stroke="#E2761B" stroke-linecap="round" stroke-linejoin="round"/>
<path d="M20.7798 17.0195L40.2967 31.7709L36.8363 23.0111L20.7798 17.0195Z" fill="#E4761B" stroke="#E4761B" stroke-linecap="round" stroke-linejoin="round"/>
<path d="M59.1215 50.8926L53.8813 58.9208L65.0932 62.0056L68.3164 51.0705L59.1215 50.8926Z" fill="#E4761B" stroke="#E4761B" stroke-linecap="round" stroke-linejoin="round"/>
<path d="M18.7036 51.0705L21.907 62.0056L33.1189 58.9208L27.8788 50.8926L18.7036 51.0705Z" fill="#E4761B" stroke="#E4761B" stroke-linecap="round" stroke-linejoin="round"/>
<path d="M32.4861 37.3279L29.3618 42.0539L40.4946 42.5482L40.0991 30.585L32.4861 37.3279Z" fill="#E4761B" stroke="#E4761B" stroke-linecap="round" stroke-linejoin="round"/>
<path d="M54.4948 37.3276L46.7829 30.4463L46.5259 42.548L57.6389 42.0536L54.4948 37.3276Z" fill="#E4761B" stroke="#E4761B" stroke-linecap="round" stroke-linejoin="round"/>
<path d="M33.1187 58.9206L39.8023 55.6579L34.0283 51.1494L33.1187 58.9206Z" fill="#E4761B" stroke="#E4761B" stroke-linecap="round" stroke-linejoin="round"/>
<path d="M47.1782 55.6579L53.8816 58.9206L52.9522 51.1494L47.1782 55.6579Z" fill="#E4761B" stroke="#E4761B" stroke-linecap="round" stroke-linejoin="round"/>
<path d="M53.8811 58.9209L47.1777 55.6582L47.7116 60.0283L47.6523 61.8672L53.8811 58.9209Z" fill="#D7C1B3" stroke="#D7C1B3" stroke-linecap="round" stroke-linejoin="round"/>
<path d="M33.1187 58.9209L39.3475 61.8672L39.3079 60.0283L39.8023 55.6582L33.1187 58.9209Z" fill="#D7C1B3" stroke="#D7C1B3" stroke-linecap="round" stroke-linejoin="round"/>
<path d="M39.4464 48.2629L33.8701 46.6217L37.8051 44.8223L39.4464 48.2629Z" fill="#233447" stroke="#233447" stroke-linecap="round" stroke-linejoin="round"/>
<path d="M47.5337 48.2629L49.1749 44.8223L53.1297 46.6217L47.5337 48.2629Z" fill="#233447" stroke="#233447" stroke-linecap="round" stroke-linejoin="round"/>
<path d="M33.1185 58.9208L34.0677 50.8926L27.8784 51.0705L33.1185 58.9208Z" fill="#CD6116" stroke="#CD6116" stroke-linecap="round" stroke-linejoin="round"/>
<path d="M52.9321 50.8926L53.8813 58.9208L59.1214 51.0705L52.9321 50.8926Z" fill="#CD6116" stroke="#CD6116" stroke-linecap="round" stroke-linejoin="round"/>
<path d="M57.6384 42.0537L46.5254 42.5481L47.5536 48.2627L49.1949 44.8221L53.1497 46.6215L57.6384 42.0537Z" fill="#CD6116" stroke="#CD6116" stroke-linecap="round" stroke-linejoin="round"/>
<path d="M33.8698 46.6215L37.8246 44.8221L39.4461 48.2627L40.4941 42.5481L29.3613 42.0537L33.8698 46.6215Z" fill="#CD6116" stroke="#CD6116" stroke-linecap="round" stroke-linejoin="round"/>
<path d="M29.3618 42.0537L34.0285 51.1498L33.8703 46.6215L29.3618 42.0537Z" fill="#E4751F" stroke="#E4751F" stroke-linecap="round" stroke-linejoin="round"/>
<path d="M53.1499 46.6215L52.9521 51.1498L57.6386 42.0537L53.1499 46.6215Z" fill="#E4751F" stroke="#E4751F" stroke-linecap="round" stroke-linejoin="round"/>
<path d="M40.4948 42.5479L39.4468 48.2625L40.7519 55.0055L41.0485 46.1269L40.4948 42.5479Z" fill="#E4751F" stroke="#E4751F" stroke-linecap="round" stroke-linejoin="round"/>
<path d="M46.5256 42.5479L45.9917 46.1072L46.229 55.0055L47.5538 48.2625L46.5256 42.5479Z" fill="#E4751F" stroke="#E4751F" stroke-linecap="round" stroke-linejoin="round"/>
<path d="M47.5539 48.2623L46.229 55.0053L47.1782 55.6578L52.9522 51.1493L53.1499 46.6211L47.5539 48.2623Z" fill="#F6851B" stroke="#F6851B" stroke-linecap="round" stroke-linejoin="round"/>
<path d="M33.8701 46.6211L34.0283 51.1493L39.8023 55.6578L40.7515 55.0053L39.4464 48.2623L33.8701 46.6211Z" fill="#F6851B" stroke="#F6851B" stroke-linecap="round" stroke-linejoin="round"/>
<path d="M47.6526 61.8672L47.7119 60.0282L47.2175 59.5932H39.7627L39.3079 60.0282L39.3475 61.8672L33.1187 58.9209L35.2938 60.7006L39.7034 63.7655H47.2768L51.7062 60.7006L53.8814 58.9209L47.6526 61.8672Z" fill="#C0AD9E" stroke="#C0AD9E" stroke-linecap="round" stroke-linejoin="round"/>
<path d="M47.1782 55.6584L46.229 55.0059H40.7516L39.8025 55.6584L39.3081 60.0285L39.7629 59.5934H47.2177L47.7121 60.0285L47.1782 55.6584Z" fill="#161616"/>
<path d="M67.0308 32.5817L68.7116 24.5139L66.2003 17.0195L47.1777 31.1382L54.4941 37.3274L64.8359 40.3529L67.1297 37.6834L66.141 36.9715L67.7229 35.528L66.497 34.5789L68.0789 33.3726L67.0308 32.5817Z" fill="#763D16" stroke="#763D16" stroke-linecap="round" stroke-linejoin="round"/>
<path d="M18.2881 24.5139L19.9689 32.5817L18.9011 33.3726L20.483 34.5789L19.2768 35.528L20.8587 36.9715L19.87 37.6834L22.144 40.3529L32.4858 37.3274L39.8022 31.1382L20.7796 17.0195L18.2881 24.5139Z" fill="#763D16" stroke="#763D16" stroke-linecap="round" stroke-linejoin="round"/>
<path d="M64.8363 40.3535L54.4945 37.3281L57.6386 42.0541L52.9521 51.1502L59.1216 51.0711H68.3166L64.8363 40.3535Z" fill="#F6851B" stroke="#F6851B" stroke-linecap="round" stroke-linejoin="round"/>
<path d="M32.4861 37.3281L22.1443 40.3535L18.7036 51.0711H27.8788L34.0285 51.1502L29.3618 42.0541L32.4861 37.3281Z" fill="#F6851B" stroke="#F6851B" stroke-linecap="round" stroke-linejoin="round"/>
<path d="M46.5252 42.5484L47.1777 31.1388L50.1834 23.0117H36.8359L39.802 31.1388L40.4941 42.5484L40.7314 46.1473L40.7512 55.0061H46.2286L46.2681 46.1473L46.5252 42.5484Z" fill="#F6851B" stroke="#F6851B" stroke-linecap="round" stroke-linejoin="round"/>
</svg>
