<svg width="45" height="45" viewBox="0 0 45 45" fill="none" xmlns="http://www.w3.org/2000/svg">
<path d="M22.5 45C34.9264 45 45 34.9264 45 22.5C45 10.0736 34.9264 0 22.5 0C10.0736 0 0 10.0736 0 22.5C0 34.9264 10.0736 45 22.5 45Z" fill="#FF0420"/>
<path d="M15.942 28.4802C14.6022 28.4802 13.5046 28.1649 12.649 27.5345C11.8046 26.8928 11.3824 25.9809 11.3824 24.7987C11.3824 24.5511 11.4106 24.247 11.4668 23.8868C11.6132 23.0762 11.8215 22.1023 12.0917 20.9653C12.8572 17.8693 14.8331 16.3213 18.0192 16.3213C18.886 16.3213 19.6628 16.4676 20.3496 16.7603C21.0364 17.0417 21.5768 17.4696 21.9708 18.0438C22.3648 18.6067 22.5619 19.2822 22.5619 20.0702C22.5619 20.3067 22.5337 20.605 22.4774 20.9653C22.3086 21.9673 22.1059 22.9411 21.8695 23.8868C21.4754 25.4292 20.7943 26.5832 19.8261 27.3487C18.8579 28.103 17.5632 28.4802 15.942 28.4802ZM16.1784 26.0484C16.8089 26.0484 17.3436 25.8626 17.7827 25.4911C18.2331 25.1196 18.5539 24.5511 18.7453 23.7855C19.0042 22.7272 19.2013 21.804 19.3364 21.016C19.3814 20.7795 19.4039 20.5375 19.4039 20.2897C19.4039 19.2653 18.8691 18.753 17.7997 18.753C17.1691 18.753 16.6288 18.9388 16.1784 19.3103C15.7394 19.6819 15.4241 20.2504 15.2328 21.016C15.0301 21.7702 14.8274 22.6935 14.6248 23.7855C14.5797 24.0106 14.5572 24.247 14.5572 24.4947C14.5572 25.5305 15.0977 26.0484 16.1784 26.0484Z" fill="white"/>
<path d="M23.3373 28.3115C23.2134 28.3115 23.1177 28.272 23.0502 28.1932C22.9938 28.1031 22.977 28.0019 22.9995 27.8893L25.33 16.9124C25.3525 16.7886 25.4144 16.6872 25.5157 16.6084C25.6171 16.5297 25.724 16.4902 25.8366 16.4902H30.3287C31.5783 16.4902 32.5803 16.7492 33.3346 17.267C34.1002 17.785 34.483 18.5336 34.483 19.5131C34.483 19.7945 34.4492 20.0873 34.3816 20.3912C34.1002 21.6859 33.5317 22.6429 32.676 23.2621C31.8317 23.8813 30.672 24.1909 29.1972 24.1909H26.9174L26.1406 27.8893C26.118 28.0131 26.0561 28.1144 25.9548 28.1932C25.8535 28.272 25.7465 28.3115 25.634 28.3115H23.3373ZM29.3154 21.8604C29.7882 21.8604 30.1991 21.7309 30.5482 21.472C30.9084 21.2131 31.1449 20.8416 31.2575 20.3574C31.2912 20.166 31.3081 19.9972 31.3081 19.8508C31.3081 19.5243 31.2125 19.2766 31.021 19.1078C30.8296 18.9276 30.5032 18.8376 30.0416 18.8376H28.015L27.3733 21.8604H29.3154Z" fill="white"/>
</svg>
