<svg width="124" height="124" viewBox="0 0 124 124" fill="none" xmlns="http://www.w3.org/2000/svg">
<circle cx="62" cy="62" r="62" fill="#005E63"/>
<path d="M64.1301 60.4971C64.8567 60.3397 65.5223 59.9764 66.0471 59.4508L81.1853 44.4681C82.71 42.9468 82.7477 40.3206 81.223 38.7993L66.0785 23.6868C65.3462 22.9563 64.353 22.5459 63.3174 22.5459C62.2819 22.5459 61.2887 22.9563 60.5564 23.6868L42.6204 41.5887L16.0981 68.1057C14.5965 69.5872 16.161 72.0669 18.1555 71.3659L63.7547 60.5766L64.1301 60.4971Z" fill="#05B0AB"/>
<path d="M108.409 52.508L62.5335 64.1395C61.5269 64.3978 60.3173 64.8007 59.5303 65.586L45.5061 79.5772C44.6376 80.444 44.1497 81.6195 44.1497 82.8451C44.1497 84.0708 44.6376 85.2462 45.5061 86.1131L59.4039 99.9783C60.2734 100.844 61.4519 101.331 62.6806 101.331C63.9093 101.331 65.0878 100.844 65.9573 99.9783L80.9238 85.0468L110.416 55.684C111.876 54.2396 110.356 51.8241 108.409 52.508Z" fill="#05B0AB"/>
</svg>
