<svg width="65" height="47" viewBox="0 0 65 47" fill="none" xmlns="http://www.w3.org/2000/svg">
<path d="M32.5011 44.2029C44.1398 44.2029 53.502 34.9735 53.502 23.4999C53.502 12.0263 44.1398 2.79688 32.5011 2.79688C20.8623 2.79688 11.5001 12.0263 11.5001 23.4999C11.5001 34.9735 20.8623 44.2029 32.5011 44.2029Z" fill="#2775CA"/>
<path d="M32.5009 44.2029C44.1397 44.2029 53.5019 34.9735 53.5019 23.4999C53.5019 12.0263 44.1397 2.79688 32.5009 2.79688C20.8622 2.79688 11.5 12.0263 11.5 23.4999C11.5 34.9735 20.8622 44.2029 32.5009 44.2029Z" fill="#2775CA"/>
<path d="M38.2763 26.7773C38.2763 23.7588 36.4387 22.7236 32.7636 22.2909C30.1384 21.9452 29.6134 21.2558 29.6134 20.0488C29.6134 18.8418 30.4892 18.0654 32.2385 18.0654C33.8136 18.0654 34.6894 18.583 35.1262 19.877C35.2144 20.1357 35.4769 20.3076 35.7394 20.3076H37.1402C37.4909 20.3076 37.7534 20.0488 37.7534 19.7031V19.6161C37.4027 17.7176 35.8276 16.2519 33.8157 16.08V14.0097C33.8157 13.664 33.5532 13.4052 33.1164 13.3203H31.8038C31.4531 13.3203 31.1906 13.5791 31.1045 14.0097V15.9931C28.4794 16.3388 26.8161 18.0634 26.8161 20.2206C26.8161 23.0673 28.5655 24.1894 32.2406 24.62C34.6915 25.0506 35.479 25.5682 35.479 26.9491C35.479 28.33 34.2546 29.2782 32.5914 29.2782C30.317 29.2782 29.5294 28.33 29.2669 27.0361C29.1787 26.6903 28.9162 26.5185 28.6537 26.5185H27.1668C26.8161 26.5185 26.5536 26.7773 26.5536 27.123V27.21C26.9043 29.3672 28.303 30.92 31.1906 31.3506V33.4209C31.1906 33.7666 31.4531 34.0254 31.8899 34.1103H33.2025C33.5532 34.1103 33.8157 33.8515 33.9018 33.4209V31.3506C36.5248 30.9179 38.2763 29.1064 38.2763 26.7773Z" fill="white"/>
<path d="M28.0383 35.8348C21.213 33.4187 17.7122 25.9139 20.2512 19.2723C21.5637 15.6493 24.4514 12.8896 28.0383 11.5957C28.389 11.4238 28.5633 11.165 28.5633 10.7323V9.52535C28.5633 9.17961 28.389 8.92082 28.0383 8.83594C27.9501 8.83594 27.7758 8.83594 27.6876 8.92289C19.3754 11.5108 14.8245 20.2226 17.4497 28.4189C19.0247 33.249 22.7881 36.9589 27.6876 38.5117C28.0383 38.6835 28.3869 38.5117 28.4751 38.1659C28.5633 38.079 28.5633 37.9941 28.5633 37.8202V36.6132C28.5633 36.3523 28.3008 36.0087 28.0383 35.8348ZM37.3123 8.92082C36.9616 8.74898 36.613 8.92082 36.5248 9.26656C36.4366 9.35351 36.4366 9.4384 36.4366 9.6123V10.8193C36.4366 11.165 36.6991 11.5087 36.9616 11.6826C43.7869 14.0986 47.2878 21.6035 44.7487 28.245C43.4362 31.8681 40.5486 34.6278 36.9616 35.9217C36.6109 36.0936 36.4366 36.3523 36.4366 36.785V37.992C36.4366 38.3378 36.6109 38.5966 36.9616 38.6814C37.0498 38.6814 37.2241 38.6814 37.3123 38.5945C45.6245 36.0066 50.1754 27.2948 47.5503 19.0984C45.9752 14.1835 42.1257 10.4735 37.3123 8.92082Z" fill="white"/>
</svg>
