<svg width="84" height="84" viewBox="0 0 84 84" fill="none" xmlns="http://www.w3.org/2000/svg">
<path d="M27.7608 30.2746C35.6248 22.5751 48.3748 22.5751 56.2389 30.2746L57.1853 31.2013C57.5785 31.5863 57.5785 32.2104 57.1853 32.5954L53.9477 35.7653C53.7511 35.9578 53.4323 35.9578 53.2357 35.7653L51.9333 34.4901C46.4472 29.1187 37.5524 29.1187 32.0663 34.4901L30.6715 35.8557C30.4749 36.0482 30.1562 36.0482 29.9596 35.8557L26.722 32.6858C26.3287 32.3009 26.3287 31.6767 26.722 31.2917L27.7608 30.2746ZM62.9345 36.8303L65.816 39.6515C66.2092 40.0365 66.2092 40.6606 65.816 41.0456L52.8232 53.7668C52.43 54.1518 51.7925 54.1518 51.3993 53.7668C51.3993 53.7668 51.3993 53.7668 51.3993 53.7668L42.1779 44.7382C42.0796 44.642 41.9202 44.642 41.8219 44.7382C41.8219 44.7382 41.8219 44.7382 41.8219 44.7382L32.6006 53.7668C32.2074 54.1518 31.5699 54.1518 31.1767 53.7668C31.1767 53.7668 31.1767 53.7668 31.1767 53.7668L18.1836 41.0455C17.7904 40.6605 17.7904 40.0363 18.1836 39.6513L21.065 36.8301C21.4582 36.4451 22.0958 36.4451 22.489 36.8301L31.7106 45.8588C31.8089 45.9551 31.9682 45.9551 32.0665 45.8588C32.0665 45.8588 32.0665 45.8588 32.0665 45.8588L41.2877 36.8301C41.6809 36.4451 42.3184 36.4451 42.7116 36.8301C42.7116 36.8301 42.7116 36.8301 42.7116 36.8301L51.9332 45.8588C52.0315 45.9551 52.1909 45.9551 52.2892 45.8588L61.5106 36.8303C61.9038 36.4453 62.5413 36.4453 62.9345 36.8303Z" fill="black"/>
</svg>
