<svg width="128" height="128" viewBox="0 0 128 128" fill="none" xmlns="http://www.w3.org/2000/svg">
<circle cx="64" cy="64" r="64" fill="#005E63"/>
<path d="M66.1988 62.4469C66.9489 62.2844 67.6359 61.9094 68.1776 61.3669L83.8041 45.9008C85.378 44.3305 85.417 41.6196 83.8431 40.0492L68.2101 24.4492C67.4541 23.6951 66.4289 23.2715 65.3599 23.2715C64.291 23.2715 63.2657 23.6951 62.5098 24.4492L43.9952 42.9286L16.6174 70.3009C15.0673 71.8303 16.6824 74.39 18.7412 73.6663L65.8113 62.529L66.1988 62.4469Z" fill="#05B0AB"/>
<path d="M111.906 54.2013L64.5511 66.208C63.5121 66.4747 62.2634 66.8906 61.451 67.7011L46.9744 82.1437C46.0779 83.0385 45.5742 84.2519 45.5742 85.5171C45.5742 86.7822 46.0779 87.9956 46.9744 88.8904L61.3206 103.203C62.2181 104.097 63.4346 104.599 64.7029 104.599C65.9713 104.599 67.1878 104.097 68.0853 103.203L83.5347 87.7898L113.978 57.4798C115.485 55.9888 113.916 53.4953 111.906 54.2013Z" fill="#05B0AB"/>
</svg>
